<svg width="61" height="61" viewBox="0 0 61 61" fill="none" xmlns="http://www.w3.org/2000/svg">
<path d="M51.7198 40.2326C51.7198 40.2326 49.6872 40.0347 46.9718 39.8807C46.8012 48.2064 45.4388 53.5325 42.6097 54.9458V46.1185C43.2571 46.0293 43.7614 45.499 43.7614 44.827V43.5138C43.7614 42.7805 43.1709 42.1869 42.4375 42.1869H39.5345C38.8012 42.1869 38.2107 42.7821 38.2107 43.5138V44.827C38.2107 45.4989 38.7152 46.0293 39.3623 46.1185V54.9458C36.5333 53.5325 35.1695 48.2064 35.0003 39.8807C32.2852 40.0358 30.2523 40.2326 30.2523 40.2326C27.2377 40.2326 24.793 42.6762 24.793 45.6897V52.6039C24.793 55.6205 33.2508 56.9722 41.1691 56.9722C49.0843 56.9722 57.1796 55.6205 57.1796 52.6039V45.6897C57.178 42.6762 54.7349 40.2326 51.7198 40.2326ZM40.9832 40.1791C44.8515 40.1791 50.8081 35.1235 50.8081 28.4031C50.8081 21.9099 46.3999 16.6285 40.9832 16.6285C35.5693 16.6285 31.1614 21.9115 31.1614 28.4031C31.1613 35.1235 37.1192 40.1791 40.9832 40.1791ZM33.6412 25.7755C33.8965 25.3479 34.1795 24.922 34.45 24.55C35.2281 23.4814 35.8647 22.4083 37.4605 24.55C38.958 26.5628 44.5978 27.6913 48.6016 27.8189C48.6107 28.0141 48.6246 28.2079 48.6246 28.4031C48.6246 33.6061 43.9321 38.0003 40.9817 38.0003C38.0341 38.0003 33.3415 33.6061 33.3415 28.4031C33.343 27.4914 33.4536 26.612 33.6412 25.7755ZM18.2894 33.8644L14.8545 31.3368L21.8873 24.3057V12.9047H26.3692V25.7848L18.2894 33.8644ZM40.0453 11.9191C35.4834 5.85342 27.6622 2.64303 19.7531 4.34195C8.901 6.67295 1.99291 17.3575 4.32391 28.2109C6.10732 36.5149 12.785 42.5114 20.6879 43.8229L23.7969 39.3688C16.7687 39.2963 10.4755 34.3808 8.93794 27.2207C7.15459 18.918 12.4406 10.7399 20.7449 8.9578C26.2768 7.76923 31.753 9.72052 35.3188 13.6104L40.0453 11.9191Z" fill="#9E5B18"/>
</svg>
