<svg width="46" height="42" viewBox="0 0 46 42" fill="none" xmlns="http://www.w3.org/2000/svg">
<path fill-rule="evenodd" clip-rule="evenodd" d="M22.7705 30.6666C15.3284 27.3569 7.79766 24.7437 0 22.7359C0.113965 22.5967 0.174531 22.5 0.255689 22.4274C1.19163 21.5898 2.12263 20.7458 3.07755 19.9313C3.22665 19.8041 3.5217 19.7169 3.69371 19.777C8.33851 21.4031 12.9743 23.0621 17.3748 25.3112C18.6621 25.9691 19.873 26.7922 21.0829 27.5961C21.8787 28.1249 22.4263 28.8897 22.655 29.8555C22.705 30.0666 22.7179 30.2868 22.7705 30.6666Z" fill="white"/>
<path fill-rule="evenodd" clip-rule="evenodd" d="M23.2747 30.654C23.3074 29.4001 23.7739 28.4718 24.6255 27.8696C25.9891 26.9052 27.3867 25.9591 28.8672 25.2055C32.8916 23.157 37.1248 21.6247 41.3567 20.0882C42.3273 19.736 42.9738 19.757 43.6842 20.5434C44.3532 21.2842 45.1593 21.8951 45.9039 22.5646C45.9273 22.5856 45.9372 22.6225 46 22.7371C38.2403 24.7438 30.6973 27.3425 23.2747 30.654Z" fill="white"/>
<path fill-rule="evenodd" clip-rule="evenodd" d="M24.5615 32.3348C26.0681 32.965 27.4381 33.5735 28.836 34.1048C29.3714 34.3085 29.5817 34.5792 29.5141 35.1536C29.4651 35.5699 29.5045 35.9972 29.5045 36.5455C28.7613 36.1092 28.1292 35.7324 27.4921 35.365C20.1442 31.1275 12.4352 27.8272 4.16966 25.972C3.45175 25.8107 3.34455 25.5601 3.63557 24.6224C4.55365 24.8625 5.48101 25.0887 6.39939 25.3481C10.761 26.5804 15.066 27.9899 19.2617 29.7302C20.4138 30.2082 21.5501 30.7281 22.6814 31.2559C22.9999 31.4044 23.2583 31.4293 23.5795 31.2639C28.4934 28.7357 33.6242 26.7979 38.9552 25.4173C40.0467 25.1346 41.1521 24.9084 42.2517 24.6591C42.3143 24.6449 42.3827 24.6573 42.4436 24.6573C42.7362 25.4574 42.6266 25.6709 41.8793 25.8598C36.1191 27.3152 30.5002 29.1754 25.2094 31.9705C25.0336 32.0639 24.8617 32.1657 24.5615 32.3348Z" fill="white"/>
<path fill-rule="evenodd" clip-rule="evenodd" d="M22.5527 33.0622C20.4427 34.1566 18.3326 35.2506 16.108 36.4043C16.108 35.7519 16.0907 35.2284 16.1231 34.7083C16.1294 34.6087 16.3174 34.4883 16.4445 34.4343C17.9808 33.7827 19.5254 33.1519 21.0588 32.4937C21.708 32.2149 22.062 32.7324 22.5388 32.9233C22.5435 32.9696 22.5481 33.016 22.5527 33.0622Z" fill="white"/>
<path fill-rule="evenodd" clip-rule="evenodd" d="M22.6043 4.34218C22.2625 5.24505 21.7121 5.93011 21.1051 6.5709C19.9682 7.77114 18.5869 8.61599 17.1675 9.41408C15.7415 10.216 14.2553 10.9452 12.9489 11.921C10.8472 13.4907 9.4184 15.5953 9.04945 18.3037C8.95174 19.0212 9.03472 19.7645 9.03472 20.5749C8.58431 20.1119 8.44561 19.5722 8.37848 19.02C8.15873 17.2107 8.60197 15.5377 9.46746 13.9755C10.7225 11.71 12.6751 10.2745 14.9471 9.22426C16.8287 8.35453 18.7719 7.59546 20.4128 6.26702C21.1474 5.67227 21.8368 5.01941 22.6043 4.34218Z" fill="white"/>
<path fill-rule="evenodd" clip-rule="evenodd" d="M23.4856 4.27416C25.5628 6.78776 28.3563 8.00369 31.1281 9.25997C33.311 10.2493 35.1862 11.6368 36.4314 13.7722C37.4616 15.5389 37.9699 17.4326 37.5317 19.4967C37.4551 19.8575 37.2521 20.1902 37.1075 20.5359C37.055 20.5177 37.0026 20.4994 36.9501 20.4814C36.9771 20.1481 37.017 19.8153 37.0289 19.4814C37.1064 17.3024 36.2651 15.4646 34.9835 13.7981C33.8378 12.3084 32.3433 11.2828 30.7284 10.3892C29.1348 9.50729 27.5542 8.58884 26.0387 7.57553C24.9943 6.87736 24.1719 5.89966 23.5831 4.74856C23.5364 4.65721 23.4942 4.56318 23.4576 4.46739C23.4476 4.44148 23.4652 4.40442 23.4856 4.27416Z" fill="white"/>
<path fill-rule="evenodd" clip-rule="evenodd" d="M22.6526 7.8212C22.1359 9.01916 21.2466 9.87299 20.19 10.5275C19.0417 11.2389 17.8192 11.8255 16.673 12.5402C15.0706 13.5392 13.884 14.925 13.4032 16.8161C13.226 17.5134 13.2471 18.2633 13.1681 19.0886C13.0398 18.7739 12.8669 18.5061 12.8233 18.2178C12.5126 16.165 13.2667 14.4809 14.621 13.0301C15.5203 12.0666 16.6515 11.4552 17.8328 10.943C19.6065 10.1739 21.3047 9.29145 22.6526 7.8212Z" fill="white"/>
<path fill-rule="evenodd" clip-rule="evenodd" d="M23.378 7.82687C24.9067 9.56612 26.9794 10.3733 28.9727 11.3221C30.7553 12.1707 32.1489 13.4357 32.8804 15.358C33.2282 16.2719 33.393 17.2139 33.1999 18.187C33.1404 18.4868 32.9873 18.7671 32.7714 19.0117C32.7714 18.5225 32.8281 18.025 32.7615 17.5454C32.4569 15.3469 31.2168 13.7634 29.4451 12.611C28.2704 11.847 26.9945 11.2473 25.8011 10.5109C24.7562 9.86628 23.8825 9.01947 23.378 7.82687Z" fill="white"/>
<path fill-rule="evenodd" clip-rule="evenodd" d="M23.2797 0.0903633C22.4578 0.929641 22.3606 1.45204 22.9348 1.94346C23.3717 2.31733 23.8619 2.12214 24.3933 1.36265C24.6101 1.81145 24.4151 2.43995 23.9426 2.81443C23.3893 3.25301 22.4969 3.20749 21.9857 2.71451C21.4573 2.20492 21.3475 1.37049 21.7245 0.728467C22.1008 0.0875767 22.6711 -0.146422 23.2797 0.0903633Z" fill="white"/>
<path fill-rule="evenodd" clip-rule="evenodd" d="M16.5955 18.1959C16.5104 17.7723 16.3889 17.4536 16.3924 17.1363C16.4104 15.486 17.2533 14.3246 18.5663 13.4738C18.8912 13.2632 19.2465 13.0964 19.6001 12.9383C20.7213 12.4371 21.82 11.9019 22.6719 10.9506C22.7129 10.9959 22.754 11.0413 22.7951 11.0866C22.4626 11.4539 22.1807 11.8969 21.787 12.1724C20.9719 12.7424 20.1054 13.238 19.245 13.7372C18.2188 14.3327 17.377 15.1114 16.9713 16.2606C16.772 16.8251 16.7342 17.4492 16.5955 18.1959Z" fill="white"/>
<path fill-rule="evenodd" clip-rule="evenodd" d="M23.4253 11.0346C24.3775 12.0704 25.6377 12.562 26.8522 13.1417C28.1581 13.7649 29.1124 14.7309 29.5203 16.186C29.7175 16.889 29.6496 17.6194 29.3521 18.0456C29.3331 18.0225 29.2971 17.9987 29.2985 17.9775C29.4186 16.017 28.3937 14.7475 26.8643 13.8003C26.1473 13.3562 25.3699 13.0082 24.6795 12.5273C24.1577 12.1639 23.7307 11.6583 23.2613 11.2161C23.3161 11.1556 23.3707 11.0951 23.4253 11.0346Z" fill="white"/>
<path d="M18.5133 20.6144C18.4359 20.6144 18.3747 20.5901 18.3298 20.5416C18.2849 20.4906 18.2624 20.4229 18.2624 20.3386C18.2624 20.2518 18.2849 20.1842 18.3298 20.1357C18.3747 20.0872 18.4359 20.0629 18.5133 20.0629C18.5907 20.0629 18.6519 20.0872 18.6968 20.1357C18.7393 20.1842 18.7605 20.2518 18.7605 20.3386C18.7605 20.4255 18.738 20.4931 18.6931 20.5416C18.6481 20.5901 18.5882 20.6144 18.5133 20.6144ZM19.15 20.6144C19.0726 20.6144 19.0114 20.5901 18.9665 20.5416C18.9215 20.4906 18.8991 20.4229 18.8991 20.3386C18.8991 20.2518 18.9215 20.1842 18.9665 20.1357C19.0114 20.0872 19.0726 20.0629 19.15 20.0629C19.2274 20.0629 19.2873 20.0872 19.3297 20.1357C19.3747 20.1842 19.3972 20.2518 19.3972 20.3386C19.3972 20.4229 19.3747 20.4906 19.3297 20.5416C19.2848 20.5901 19.2249 20.6144 19.15 20.6144Z" fill="white"/>
<path d="M18.9023 23.0372C18.5977 23.0372 18.3655 22.9632 18.2057 22.8151C18.0484 22.667 17.9698 22.4475 17.9698 22.1564C17.9698 22.0569 17.9798 21.9611 17.9997 21.8692C18.0197 21.7773 18.0497 21.6892 18.0896 21.605C18.1695 21.4365 18.2806 21.305 18.4229 21.2105C18.5652 21.1135 18.7288 21.065 18.9135 21.065C18.9984 21.065 19.0796 21.0765 19.157 21.0995C19.2344 21.1224 19.308 21.1569 19.3779 21.2029C19.4703 21.2641 19.5515 21.3445 19.6214 21.4441C19.6913 21.5437 19.7462 21.6547 19.7861 21.7773C19.8261 21.8973 19.8461 22.0237 19.8461 22.1564C19.8461 22.4577 19.7662 22.6798 19.6064 22.8228C19.4491 22.9657 19.2144 23.0372 18.9023 23.0372ZM18.8986 22.57C19.0309 22.57 19.1283 22.5343 19.1907 22.4628C19.2531 22.3913 19.2843 22.2828 19.2843 22.1373C19.2843 22.0249 19.2668 21.9228 19.2319 21.8309C19.1969 21.739 19.1495 21.665 19.0896 21.6088C19.0321 21.5526 18.9672 21.5245 18.8948 21.5245C18.8249 21.5245 18.76 21.5526 18.7001 21.6088C18.6426 21.6624 18.5964 21.7352 18.5615 21.8271C18.5265 21.919 18.5091 22.0224 18.5091 22.1373C18.5091 22.2853 18.5403 22.3951 18.6027 22.4666C18.6676 22.5355 18.7662 22.57 18.8986 22.57Z" fill="white"/>
<path d="M20.3729 19.8778L20.5863 19.8434C20.5364 19.8178 20.4965 19.7834 20.4665 19.74C20.434 19.694 20.4178 19.6417 20.4178 19.5829C20.4178 19.4732 20.4553 19.3876 20.5302 19.3264C20.6051 19.2651 20.7049 19.2345 20.8298 19.2345C20.9521 19.2345 21.0545 19.2574 21.1369 19.3034L21.062 19.4987C21.0295 19.4808 20.9958 19.4681 20.9609 19.4604C20.9284 19.4527 20.8947 19.4489 20.8597 19.4489C20.8048 19.4489 20.7611 19.4655 20.7287 19.4987C20.6962 19.5319 20.68 19.5766 20.68 19.6327C20.68 19.6736 20.6912 19.7093 20.7137 19.74C20.7337 19.768 20.7599 19.7897 20.7923 19.8051C20.8572 19.7923 20.9122 19.7834 20.9571 19.7783C21.0045 19.7706 21.0445 19.7655 21.077 19.7629C21.1094 19.7578 21.1381 19.7553 21.1631 19.7553V19.9774C21.1182 19.9799 21.0545 19.9863 20.9721 19.9965C20.8922 20.0042 20.8086 20.0131 20.7212 20.0233C20.6338 20.0336 20.5576 20.0438 20.4927 20.054C20.4278 20.0616 20.3879 20.068 20.3729 20.0731V19.8778Z" fill="white"/>
<path d="M20.4635 20.3182H21.0215V22.9989H20.4635V20.3182Z" fill="white"/>
<path d="M22.7167 22.9989V23.0602C22.7167 23.2338 22.6842 23.3844 22.6193 23.5121C22.5544 23.6423 22.4633 23.7419 22.3459 23.8108C22.2311 23.8823 22.0937 23.918 21.9339 23.918C21.8066 23.918 21.6893 23.9027 21.5819 23.8721C21.4745 23.8414 21.3622 23.7853 21.2448 23.7036L21.4695 23.3321C21.5345 23.3755 21.5919 23.4049 21.6418 23.4202C21.6943 23.4355 21.7554 23.4432 21.8253 23.4432C21.9252 23.4432 22.0051 23.4036 22.065 23.3244C22.1274 23.2478 22.1586 23.1508 22.1586 23.0334V21.1033H22.7167V22.5394H23.2035C23.216 22.5394 23.2223 22.5445 23.2223 22.5547V22.9798C23.2223 22.9925 23.216 22.9989 23.2035 22.9989H22.7167Z" fill="white"/>
<path d="M23.9993 20.6144C23.9219 20.6144 23.8607 20.5901 23.8158 20.5416C23.7709 20.4906 23.7484 20.4229 23.7484 20.3386C23.7484 20.2518 23.7709 20.1842 23.8158 20.1357C23.8607 20.0872 23.9219 20.0629 23.9993 20.0629C24.0767 20.0629 24.1379 20.0872 24.1828 20.1357C24.2253 20.1842 24.2465 20.2518 24.2465 20.3386C24.2465 20.4255 24.224 20.4931 24.1791 20.5416C24.1341 20.5901 24.0742 20.6144 23.9993 20.6144ZM24.636 20.6144C24.5586 20.6144 24.4974 20.5901 24.4525 20.5416C24.4075 20.4906 24.3851 20.4229 24.3851 20.3386C24.3851 20.2518 24.4075 20.1842 24.4525 20.1357C24.4974 20.0872 24.5586 20.0629 24.636 20.0629C24.7134 20.0629 24.7733 20.0872 24.8158 20.1357C24.8607 20.1842 24.8832 20.2518 24.8832 20.3386C24.8832 20.4229 24.8607 20.4906 24.8158 20.5416C24.7708 20.5901 24.7109 20.6144 24.636 20.6144Z" fill="white"/>
<path d="M25.7485 22.5394C25.761 22.5394 25.7672 22.5445 25.7672 22.5547V22.9798C25.7672 22.9925 25.761 22.9989 25.7485 22.9989H23.1644C23.1519 22.9989 23.1456 22.9925 23.1456 22.9798V22.5547C23.1456 22.5445 23.1519 22.5394 23.1644 22.5394H23.6999C23.66 22.4909 23.6263 22.4398 23.5988 22.3862C23.5738 22.3326 23.5539 22.2764 23.5389 22.2177C23.5264 22.159 23.5201 22.0977 23.5201 22.0339C23.5201 21.8424 23.5626 21.6777 23.6475 21.5399C23.7349 21.3994 23.8597 21.2922 24.022 21.2182C24.1868 21.1416 24.384 21.1033 24.6137 21.1033H25.2804V22.5394H25.7485ZM24.7223 22.5394V21.5628H24.625C24.5126 21.5628 24.4165 21.582 24.3366 21.6203C24.2567 21.6586 24.1955 21.7147 24.1531 21.7888C24.1131 21.8628 24.0932 21.9547 24.0932 22.0645C24.0932 22.1641 24.1131 22.2496 24.1531 22.3211C24.193 22.3926 24.2517 22.4475 24.3291 22.4858C24.409 22.5215 24.5051 22.5394 24.6175 22.5394H24.7223Z" fill="white"/>
<path d="M25.7099 22.9989C25.6974 22.9989 25.6911 22.9925 25.6911 22.9798V22.5547C25.6911 22.5445 25.6974 22.5394 25.7099 22.5394H26.1331C26.1006 22.4602 26.0756 22.3773 26.0582 22.2905C26.0407 22.2011 26.032 22.1079 26.032 22.0109C26.032 21.9011 26.0494 21.7824 26.0844 21.6547C26.1218 21.5245 26.168 21.4135 26.223 21.3216C26.3428 21.2501 26.4701 21.1965 26.605 21.1607C26.7423 21.1224 26.8621 21.1033 26.9645 21.1033C27.0494 21.1033 27.1305 21.1135 27.2079 21.1339C27.2853 21.1518 27.359 21.1786 27.4289 21.2143C27.5687 21.2884 27.6773 21.3943 27.7547 21.5322C27.8321 21.6675 27.8708 21.8258 27.8708 22.0071C27.8708 22.1041 27.8596 22.196 27.8371 22.2828C27.8171 22.3696 27.7847 22.45 27.7397 22.5241C27.6473 22.6747 27.5225 22.7921 27.3652 22.8764C27.2104 22.9581 27.0381 22.9989 26.8484 22.9989H25.7099ZM26.5488 22.0913C26.5488 22.1551 26.5563 22.2254 26.5713 22.3019C26.5862 22.376 26.6075 22.4551 26.6349 22.5394H26.7772C26.8771 22.5394 26.967 22.5164 27.0469 22.4704C27.1268 22.4219 27.1904 22.3568 27.2379 22.2751C27.2853 22.1934 27.309 22.1041 27.309 22.0071C27.309 21.8718 27.2766 21.7645 27.2117 21.6854C27.1467 21.6037 27.0606 21.5628 26.9533 21.5628C26.8983 21.5628 26.8409 21.5718 26.781 21.5896C26.7236 21.6075 26.6649 21.6343 26.605 21.6701C26.5875 21.7364 26.5737 21.8054 26.5638 21.8769C26.5538 21.9458 26.5488 22.0173 26.5488 22.0913Z" fill="white"/>
<path d="M14.7288 41.349L14.0846 39.2044H14.0697C14.0722 39.2555 14.0759 39.3321 14.0809 39.4342C14.0859 39.5363 14.0909 39.6461 14.0959 39.7635C14.1009 39.8784 14.1034 39.9831 14.1034 40.0776V41.349H13.5978V38.6147H14.3693L15.0022 40.7056H15.0134L15.6838 38.6147H16.4553V41.349H15.9272V40.0546C15.9272 39.9678 15.9285 39.8682 15.931 39.7559C15.936 39.6435 15.9397 39.5376 15.9422 39.438C15.9472 39.3359 15.951 39.2593 15.9535 39.2082H15.9385L15.2494 41.349H14.7288Z" fill="white"/>
<path d="M18.7674 41.349L18.5726 40.6979H17.5989L17.4042 41.349H16.7937L17.7375 38.6032H18.4303L19.3778 41.349H18.7674ZM18.2431 39.5759C18.2306 39.5325 18.2144 39.4776 18.1944 39.4112C18.1744 39.3448 18.1544 39.2772 18.1345 39.2082C18.1145 39.1393 18.0983 39.0793 18.0858 39.0283C18.0733 39.0793 18.0558 39.1431 18.0333 39.2197C18.0134 39.2938 17.9934 39.3653 17.9734 39.4342C17.9559 39.5006 17.9422 39.5478 17.9322 39.5759L17.7412 40.2116H18.4378L18.2431 39.5759Z" fill="white"/>
<path d="M22.0702 39.978C22.0702 40.1822 22.0465 40.3686 21.999 40.5371C21.9516 40.7056 21.8792 40.8524 21.7818 40.9775C21.6845 41.1001 21.5609 41.1958 21.4111 41.2647L22.0552 42H21.3287L20.8381 41.3873C20.8306 41.3873 20.8231 41.3873 20.8156 41.3873C20.8106 41.3873 20.8044 41.3873 20.7969 41.3873C20.5072 41.3873 20.2676 41.3285 20.0778 41.2111C19.8905 41.0937 19.7507 40.929 19.6583 40.7171C19.5685 40.5052 19.5235 40.2575 19.5235 39.9742C19.5235 39.6908 19.5685 39.4444 19.6583 39.235C19.7507 39.0257 19.8905 38.8636 20.0778 38.7487C20.2676 38.6313 20.5085 38.5725 20.8006 38.5725C21.0902 38.5725 21.3287 38.6313 21.5159 38.7487C21.7032 38.8636 21.8417 39.027 21.9316 39.2389C22.024 39.4482 22.0702 39.6946 22.0702 39.978ZM20.119 39.978C20.119 40.1695 20.1427 40.3341 20.1902 40.472C20.2376 40.6099 20.3112 40.7158 20.4111 40.7899C20.511 40.8639 20.6396 40.9009 20.7969 40.9009C20.9592 40.9009 21.089 40.8639 21.1864 40.7899C21.2862 40.7158 21.3586 40.6099 21.4036 40.472C21.451 40.3341 21.4747 40.1695 21.4747 39.978C21.4747 39.6895 21.4223 39.4635 21.3174 39.3002C21.2126 39.1368 21.0403 39.0551 20.8006 39.0551C20.6408 39.0551 20.511 39.0921 20.4111 39.1661C20.3112 39.2402 20.2376 39.3461 20.1902 39.484C20.1427 39.6218 20.119 39.7865 20.119 39.978Z" fill="white"/>
<path d="M23.4031 38.6147C23.6453 38.6147 23.845 38.6453 24.0023 38.7066C24.1596 38.7653 24.2769 38.8559 24.3543 38.9785C24.4317 39.0985 24.4704 39.2504 24.4704 39.4342C24.4704 39.5593 24.4467 39.6691 24.3993 39.7635C24.3543 39.8554 24.2932 39.9346 24.2158 40.001C24.1409 40.0648 24.0597 40.1171 23.9723 40.158L24.7588 41.349H24.1296L23.493 40.2997H23.1896V41.349H22.6241V38.6147H23.4031ZM23.3619 39.0895H23.1896V39.8286H23.3731C23.5604 39.8286 23.694 39.7967 23.7738 39.7329C23.8562 39.6691 23.8974 39.5746 23.8974 39.4495C23.8974 39.3627 23.8775 39.2938 23.8375 39.2427C23.8001 39.1891 23.7414 39.1508 23.6615 39.1278C23.5841 39.1023 23.4842 39.0895 23.3619 39.0895Z" fill="white"/>
<path d="M26.7331 41.349L26.5383 40.6979H25.5646L25.3699 41.349H24.7594L25.7032 38.6032H26.396L27.3435 41.349H26.7331ZM26.2088 39.5759C26.1963 39.5325 26.18 39.4776 26.1601 39.4112C26.1401 39.3448 26.1201 39.2772 26.1002 39.2082C26.0802 39.1393 26.064 39.0793 26.0515 39.0283C26.039 39.0793 26.0215 39.1431 25.999 39.2197C25.9791 39.2938 25.9591 39.3653 25.9391 39.4342C25.9216 39.5006 25.9079 39.5478 25.8979 39.5759L25.7069 40.2116H26.4035L26.2088 39.5759Z" fill="white"/>
<path d="M29.3638 41.349H27.4949V40.9469L28.1653 40.2537C28.3026 40.1133 28.4113 39.9959 28.4911 39.9014C28.5735 39.8044 28.6335 39.7163 28.6709 39.6372C28.7084 39.558 28.7271 39.4738 28.7271 39.3844C28.7271 39.2746 28.6971 39.1929 28.6372 39.1393C28.5798 39.0857 28.5011 39.0589 28.4013 39.0589C28.2989 39.0589 28.199 39.0831 28.1017 39.1316C28.0043 39.1802 27.9019 39.2491 27.7946 39.3384L27.4875 38.967C27.5649 38.898 27.646 38.8342 27.7309 38.7755C27.8183 38.7168 27.9181 38.6695 28.0305 38.6338C28.1453 38.5955 28.2827 38.5764 28.4425 38.5764C28.6172 38.5764 28.767 38.6096 28.8919 38.6759C29.0192 38.7398 29.1166 38.8278 29.184 38.9402C29.2539 39.05 29.2889 39.1751 29.2889 39.3155C29.2889 39.4661 29.2589 39.604 29.199 39.7291C29.1416 39.8516 29.0567 39.9742 28.9443 40.0967C28.8345 40.2192 28.7009 40.3558 28.5436 40.5065L28.199 40.8358V40.8626H29.3638V41.349Z" fill="white"/>
<path d="M31.462 41.349L31.2673 40.6979H30.2935L30.0988 41.349H29.4883L30.4321 38.6032H31.125L32.0725 41.349H31.462ZM30.9377 39.5759C30.9252 39.5325 30.909 39.4776 30.889 39.4112C30.869 39.3448 30.8491 39.2772 30.8291 39.2082C30.8091 39.1393 30.7929 39.0793 30.7804 39.0283C30.7679 39.0793 30.7505 39.1431 30.728 39.2197C30.708 39.2938 30.688 39.3653 30.6681 39.4342C30.6506 39.5006 30.6369 39.5478 30.6269 39.5759L30.4359 40.2116H31.1325L30.9377 39.5759Z" fill="white"/>
</svg>
