<svg width="316" height="328" viewBox="0 0 316 328" fill="none" xmlns="http://www.w3.org/2000/svg">
<path fill-rule="evenodd" clip-rule="evenodd" d="M157.66 222.053C109.969 201.311 61.7096 184.934 11.7395 172.352C12.4699 171.479 12.858 170.873 13.3781 170.418C19.3759 165.169 25.3421 159.879 31.4616 154.775C32.417 153.978 34.3078 153.431 35.4101 153.808C65.1756 163.999 94.8834 174.396 123.083 188.491C131.332 192.614 139.092 197.772 146.846 202.811C151.946 206.125 155.455 210.917 156.92 216.97C157.241 218.293 157.323 219.673 157.66 222.053Z" fill="#216246"/>
<path fill-rule="evenodd" clip-rule="evenodd" d="M160.892 221.974C161.101 214.116 164.091 208.299 169.548 204.524C178.287 198.481 187.243 192.551 196.731 187.828C222.52 174.99 249.648 165.388 276.767 155.759C282.987 153.551 287.13 153.683 291.683 158.611C295.97 163.253 301.136 167.082 305.907 171.278C306.057 171.41 306.121 171.641 306.523 172.359C256.796 184.935 208.458 201.221 160.892 221.974Z" fill="#216246"/>
<path fill-rule="evenodd" clip-rule="evenodd" d="M169.138 232.508C178.793 236.457 187.572 240.271 196.531 243.601C199.962 244.877 201.309 246.574 200.876 250.173C200.562 252.783 200.814 255.46 200.814 258.896C196.052 256.162 192.001 253.801 187.918 251.498C140.831 224.942 91.4285 204.259 38.4602 192.632C33.8596 191.622 33.1726 190.051 35.0375 184.174C40.9209 185.679 46.8637 187.097 52.749 188.722C80.7 196.445 108.287 205.279 135.175 216.185C142.558 219.181 149.84 222.439 157.09 225.746C159.131 226.677 160.787 226.833 162.845 225.797C194.335 209.952 227.215 197.808 261.378 189.156C268.372 187.384 275.456 185.967 282.503 184.404C282.904 184.315 283.342 184.393 283.732 184.393C285.608 189.407 284.905 190.745 280.116 191.929C243.203 201.05 207.195 212.708 173.29 230.225C172.163 230.81 171.062 231.448 169.138 232.508Z" fill="#216246"/>
<path fill-rule="evenodd" clip-rule="evenodd" d="M156.265 237.067C142.743 243.925 129.221 250.781 114.965 258.011C114.965 253.923 114.855 250.642 115.062 247.383C115.102 246.758 116.307 246.004 117.122 245.666C126.967 241.582 136.865 237.629 146.691 233.504C150.852 231.757 153.121 235 156.176 236.196C156.206 236.487 156.235 236.777 156.265 237.067Z" fill="#216246"/>
<path fill-rule="evenodd" clip-rule="evenodd" d="M156.596 57.0779C154.405 62.7362 150.878 67.0295 146.988 71.0453C139.702 78.5672 130.851 83.8619 121.755 88.8636C112.616 93.8892 103.092 98.4594 94.7204 104.574C81.2524 114.412 72.0959 127.601 69.7315 144.575C69.1054 149.072 69.6371 153.73 69.6371 158.809C66.7507 155.907 65.8619 152.525 65.4317 149.064C64.0235 137.725 66.8639 127.24 72.4103 117.45C80.4529 103.252 92.9661 94.256 107.525 87.674C119.584 82.2234 132.036 77.4662 142.552 69.1409C147.259 65.4136 151.677 61.3221 156.596 57.0779Z" fill="#9E5B18"/>
<path fill-rule="evenodd" clip-rule="evenodd" d="M162.244 56.6516C175.555 72.4044 193.457 80.0246 211.219 87.8978C225.208 94.0981 237.224 102.793 245.204 116.176C251.806 127.248 255.063 139.116 252.255 152.051C251.764 154.313 250.463 156.398 249.537 158.564C249.201 158.45 248.865 158.336 248.529 158.223C248.701 156.134 248.957 154.048 249.033 151.956C249.53 138.3 244.139 126.782 235.926 116.338C228.583 107.002 219.006 100.575 208.658 94.9746C198.445 89.4477 188.317 83.6918 178.604 77.3414C171.912 72.9659 166.642 66.8387 162.868 59.6247C162.569 59.0522 162.299 58.4629 162.064 57.8626C162 57.7002 162.113 57.468 162.244 56.6516Z" fill="#9E5B18"/>
<path fill-rule="evenodd" clip-rule="evenodd" d="M156.905 78.881C153.594 86.3886 147.895 91.7396 141.124 95.8415C133.765 100.3 125.931 103.976 118.586 108.455C108.317 114.716 100.713 123.4 97.632 135.252C96.4961 139.622 96.6313 144.322 96.1255 149.494C95.3033 147.522 94.1952 145.843 93.9157 144.036C91.9246 131.172 96.7568 120.618 105.436 111.525C111.199 105.487 118.448 101.656 126.018 98.4451C137.385 93.6252 148.267 88.0951 156.905 78.881Z" fill="#9E5B18"/>
<path fill-rule="evenodd" clip-rule="evenodd" d="M161.554 78.9165C171.35 89.8164 184.633 94.875 197.407 100.821C208.83 106.139 217.761 114.067 222.448 126.114C224.677 131.842 225.733 137.745 224.496 143.844C224.115 145.722 223.134 147.479 221.75 149.012C221.75 145.946 222.113 142.828 221.686 139.823C219.734 126.045 211.787 116.121 200.434 108.899C192.906 104.11 184.73 100.352 177.082 95.7373C170.386 91.6975 164.787 86.3906 161.554 78.9165Z" fill="#9E5B18"/>
<path fill-rule="evenodd" clip-rule="evenodd" d="M160.924 30.4317C155.657 35.6915 155.034 38.9653 158.714 42.0451C161.513 44.3881 164.654 43.1649 168.06 38.4051C169.45 41.2178 168.2 45.1566 165.172 47.5035C161.626 50.2521 155.907 49.9668 152.632 46.8773C149.245 43.6837 148.541 38.4543 150.957 34.4307C153.369 30.4143 157.024 28.9478 160.924 30.4317Z" fill="#9E5B18"/>
<path fill-rule="evenodd" clip-rule="evenodd" d="M118.089 143.899C117.544 141.245 116.765 139.248 116.787 137.259C116.903 126.916 122.305 119.638 130.719 114.306C132.801 112.986 135.078 111.941 137.344 110.95C144.529 107.809 151.569 104.455 157.029 98.493C157.292 98.777 157.555 99.0616 157.818 99.3456C155.687 101.647 153.881 104.424 151.358 106.15C146.135 109.722 140.582 112.828 135.068 115.957C128.492 119.689 123.097 124.569 120.497 131.771C119.22 135.309 118.978 139.22 118.089 143.899Z" fill="#9E5B18"/>
<path fill-rule="evenodd" clip-rule="evenodd" d="M161.857 99.0196C167.959 105.511 176.035 108.591 183.818 112.224C192.186 116.13 198.302 122.184 200.916 131.303C202.179 135.709 201.744 140.287 199.837 142.958C199.716 142.813 199.486 142.664 199.495 142.531C200.264 130.244 193.696 122.288 183.895 116.352C179.3 113.569 174.319 111.388 169.894 108.374C166.55 106.096 163.814 102.928 160.806 100.157C161.157 99.7777 161.507 99.3987 161.857 99.0196Z" fill="#9E5B18"/>
<path d="M130.379 159.056C129.883 159.056 129.491 158.904 129.203 158.6C128.915 158.28 128.771 157.856 128.771 157.328C128.771 156.784 128.915 156.36 129.203 156.056C129.491 155.752 129.883 155.6 130.379 155.6C130.875 155.6 131.267 155.752 131.555 156.056C131.827 156.36 131.963 156.784 131.963 157.328C131.963 157.872 131.819 158.296 131.531 158.6C131.243 158.904 130.859 159.056 130.379 159.056ZM134.459 159.056C133.963 159.056 133.571 158.904 133.283 158.6C132.995 158.28 132.851 157.856 132.851 157.328C132.851 156.784 132.995 156.36 133.283 156.056C133.571 155.752 133.963 155.6 134.459 155.6C134.955 155.6 135.339 155.752 135.611 156.056C135.899 156.36 136.043 156.784 136.043 157.328C136.043 157.856 135.899 158.28 135.611 158.6C135.323 158.904 134.939 159.056 134.459 159.056ZM132.872 174.24C130.92 174.24 129.432 173.776 128.408 172.848C127.4 171.92 126.896 170.544 126.896 168.72C126.896 168.096 126.96 167.496 127.088 166.92C127.216 166.344 127.408 165.792 127.664 165.264C128.176 164.208 128.888 163.384 129.8 162.792C130.712 162.184 131.76 161.88 132.944 161.88C133.488 161.88 134.008 161.952 134.504 162.096C135 162.24 135.472 162.456 135.92 162.744C136.512 163.128 137.032 163.632 137.48 164.256C137.928 164.88 138.28 165.576 138.536 166.344C138.792 167.096 138.92 167.888 138.92 168.72C138.92 170.608 138.408 172 137.384 172.896C136.376 173.792 134.872 174.24 132.872 174.24ZM132.848 171.312C133.696 171.312 134.32 171.088 134.72 170.64C135.12 170.192 135.32 169.512 135.32 168.6C135.32 167.896 135.208 167.256 134.984 166.68C134.76 166.104 134.456 165.64 134.072 165.288C133.704 164.936 133.288 164.76 132.824 164.76C132.376 164.76 131.96 164.936 131.576 165.288C131.208 165.624 130.912 166.08 130.688 166.656C130.464 167.232 130.352 167.88 130.352 168.6C130.352 169.528 130.552 170.216 130.952 170.664C131.368 171.096 132 171.312 132.848 171.312ZM142.296 154.44L143.664 154.224C143.344 154.064 143.088 153.848 142.896 153.576C142.688 153.288 142.584 152.96 142.584 152.592C142.584 151.904 142.824 151.368 143.304 150.984C143.784 150.6 144.424 150.408 145.224 150.408C146.008 150.408 146.664 150.552 147.192 150.84L146.712 152.064C146.504 151.952 146.288 151.872 146.064 151.824C145.856 151.776 145.64 151.752 145.416 151.752C145.064 151.752 144.784 151.856 144.576 152.064C144.368 152.272 144.264 152.552 144.264 152.904C144.264 153.16 144.336 153.384 144.48 153.576C144.608 153.752 144.776 153.888 144.984 153.984C145.4 153.904 145.752 153.848 146.04 153.816C146.344 153.768 146.6 153.736 146.808 153.72C147.016 153.688 147.2 153.672 147.36 153.672V155.064C147.072 155.08 146.664 155.12 146.136 155.184C145.624 155.232 145.088 155.288 144.528 155.352C143.968 155.416 143.48 155.48 143.064 155.544C142.648 155.592 142.392 155.632 142.296 155.664V154.44ZM142.877 157.2H146.453V174H142.877V157.2ZM157.316 174V174.384C157.316 175.472 157.108 176.416 156.692 177.216C156.276 178.032 155.692 178.656 154.94 179.088C154.204 179.536 153.324 179.76 152.3 179.76C151.484 179.76 150.732 179.664 150.044 179.472C149.356 179.28 148.636 178.928 147.884 178.416L149.324 176.088C149.74 176.36 150.108 176.544 150.428 176.64C150.764 176.736 151.156 176.784 151.604 176.784C152.244 176.784 152.756 176.536 153.14 176.04C153.54 175.56 153.74 174.952 153.74 174.216V162.12H157.316V171.12H160.436C160.516 171.12 160.556 171.152 160.556 171.216V173.88C160.556 173.96 160.516 174 160.436 174H157.316ZM165.535 159.056C165.039 159.056 164.647 158.904 164.359 158.6C164.071 158.28 163.927 157.856 163.927 157.328C163.927 156.784 164.071 156.36 164.359 156.056C164.647 155.752 165.039 155.6 165.535 155.6C166.031 155.6 166.423 155.752 166.711 156.056C166.983 156.36 167.119 156.784 167.119 157.328C167.119 157.872 166.975 158.296 166.687 158.6C166.399 158.904 166.015 159.056 165.535 159.056ZM169.615 159.056C169.119 159.056 168.727 158.904 168.439 158.6C168.151 158.28 168.007 157.856 168.007 157.328C168.007 156.784 168.151 156.36 168.439 156.056C168.727 155.752 169.119 155.6 169.615 155.6C170.111 155.6 170.495 155.752 170.767 156.056C171.055 156.36 171.199 156.784 171.199 157.328C171.199 157.856 171.055 158.28 170.767 158.6C170.479 158.904 170.095 159.056 169.615 159.056ZM176.745 171.12C176.825 171.12 176.865 171.152 176.865 171.216V173.88C176.865 173.96 176.825 174 176.745 174H160.185C160.105 174 160.065 173.96 160.065 173.88V171.216C160.065 171.152 160.105 171.12 160.185 171.12H163.617C163.361 170.816 163.145 170.496 162.969 170.16C162.809 169.824 162.681 169.472 162.585 169.104C162.505 168.736 162.465 168.352 162.465 167.952C162.465 166.752 162.737 165.72 163.281 164.856C163.841 163.976 164.641 163.304 165.681 162.84C166.737 162.36 168.001 162.12 169.473 162.12H173.745V171.12H176.745ZM170.169 171.12V165H169.545C168.825 165 168.209 165.12 167.697 165.36C167.185 165.6 166.793 165.952 166.521 166.416C166.265 166.88 166.137 167.456 166.137 168.144C166.137 168.768 166.265 169.304 166.521 169.752C166.777 170.2 167.153 170.544 167.649 170.784C168.161 171.008 168.777 171.12 169.497 171.12H170.169ZM176.497 174C176.417 174 176.377 173.96 176.377 173.88V171.216C176.377 171.152 176.417 171.12 176.497 171.12H179.209C179.001 170.624 178.841 170.104 178.729 169.56C178.617 169 178.561 168.416 178.561 167.808C178.561 167.12 178.673 166.376 178.897 165.576C179.137 164.76 179.433 164.064 179.785 163.488C180.553 163.04 181.369 162.704 182.233 162.48C183.113 162.24 183.881 162.12 184.537 162.12C185.081 162.12 185.601 162.184 186.097 162.312C186.593 162.424 187.065 162.592 187.513 162.816C188.409 163.28 189.105 163.944 189.601 164.808C190.097 165.656 190.345 166.648 190.345 167.784C190.345 168.392 190.273 168.968 190.129 169.512C190.001 170.056 189.793 170.56 189.505 171.024C188.913 171.968 188.113 172.704 187.105 173.232C186.113 173.744 185.009 174 183.793 174H176.497ZM181.873 168.312C181.873 168.712 181.921 169.152 182.017 169.632C182.113 170.096 182.249 170.592 182.425 171.12H183.337C183.977 171.12 184.553 170.976 185.065 170.688C185.577 170.384 185.985 169.976 186.289 169.464C186.593 168.952 186.745 168.392 186.745 167.784C186.745 166.936 186.537 166.264 186.121 165.768C185.705 165.256 185.153 165 184.465 165C184.113 165 183.745 165.056 183.361 165.168C182.993 165.28 182.617 165.448 182.233 165.672C182.121 166.088 182.033 166.52 181.969 166.968C181.905 167.4 181.873 167.848 181.873 168.312Z" fill="#216246"/>
<path d="M112.994 289L108.866 275.56H108.77C108.786 275.88 108.81 276.36 108.842 277C108.874 277.64 108.906 278.328 108.938 279.064C108.97 279.784 108.986 280.44 108.986 281.032V289H105.746V271.864H110.69L114.746 284.968H114.818L119.114 271.864H124.058V289H120.674V280.888C120.674 280.344 120.682 279.72 120.698 279.016C120.73 278.312 120.754 277.648 120.77 277.024C120.802 276.384 120.826 275.904 120.842 275.584H120.746L116.33 289H112.994ZM138.875 289L137.627 284.92H131.387L130.139 289H126.227L132.275 271.792H136.715L142.787 289H138.875ZM135.515 277.888C135.435 277.616 135.331 277.272 135.203 276.856C135.075 276.44 134.947 276.016 134.819 275.584C134.691 275.152 134.587 274.776 134.507 274.456C134.427 274.776 134.315 275.176 134.171 275.656C134.043 276.12 133.915 276.568 133.787 277C133.675 277.416 133.587 277.712 133.523 277.888L132.299 281.872H136.763L135.515 277.888ZM160.04 280.408C160.04 281.688 159.888 282.856 159.584 283.912C159.28 284.968 158.816 285.888 158.192 286.672C157.568 287.44 156.776 288.04 155.816 288.472L159.944 293.08H155.288L152.144 289.24C152.096 289.24 152.048 289.24 152 289.24C151.968 289.24 151.928 289.24 151.88 289.24C150.024 289.24 148.488 288.872 147.272 288.136C146.072 287.4 145.176 286.368 144.584 285.04C144.008 283.712 143.72 282.16 143.72 280.384C143.72 278.608 144.008 277.064 144.584 275.752C145.176 274.44 146.072 273.424 147.272 272.704C148.488 271.968 150.032 271.6 151.904 271.6C153.76 271.6 155.288 271.968 156.488 272.704C157.688 273.424 158.576 274.448 159.152 275.776C159.744 277.088 160.04 278.632 160.04 280.408ZM147.536 280.408C147.536 281.608 147.688 282.64 147.992 283.504C148.296 284.368 148.768 285.032 149.408 285.496C150.048 285.96 150.872 286.192 151.88 286.192C152.92 286.192 153.752 285.96 154.376 285.496C155.016 285.032 155.48 284.368 155.768 283.504C156.072 282.64 156.224 281.608 156.224 280.408C156.224 278.6 155.888 277.184 155.216 276.16C154.544 275.136 153.44 274.624 151.904 274.624C150.88 274.624 150.048 274.856 149.408 275.32C148.768 275.784 148.296 276.448 147.992 277.312C147.688 278.176 147.536 279.208 147.536 280.408ZM168.582 271.864C170.134 271.864 171.414 272.056 172.422 272.44C173.43 272.808 174.182 273.376 174.678 274.144C175.174 274.896 175.422 275.848 175.422 277C175.422 277.784 175.27 278.472 174.966 279.064C174.678 279.64 174.286 280.136 173.79 280.552C173.31 280.952 172.79 281.28 172.23 281.536L177.27 289H173.238L169.158 282.424H167.214V289H163.59V271.864H168.582ZM168.318 274.84H167.214V279.472H168.39C169.59 279.472 170.446 279.272 170.958 278.872C171.486 278.472 171.75 277.88 171.75 277.096C171.75 276.552 171.622 276.12 171.366 275.8C171.126 275.464 170.75 275.224 170.238 275.08C169.742 274.92 169.102 274.84 168.318 274.84ZM189.921 289L188.673 284.92H182.433L181.185 289H177.273L183.321 271.792H187.761L193.833 289H189.921ZM186.561 277.888C186.481 277.616 186.377 277.272 186.249 276.856C186.121 276.44 185.993 276.016 185.865 275.584C185.737 275.152 185.633 274.776 185.553 274.456C185.473 274.776 185.361 275.176 185.217 275.656C185.089 276.12 184.961 276.568 184.833 277C184.721 277.416 184.633 277.712 184.569 277.888L183.345 281.872H187.809L186.561 277.888ZM206.492 289L205.244 284.92H199.004L197.756 289H193.844L199.892 271.792H204.332L210.404 289H206.492ZM203.132 277.888C203.052 277.616 202.948 277.272 202.82 276.856C202.692 276.44 202.564 276.016 202.436 275.584C202.308 275.152 202.204 274.776 202.124 274.456C202.044 274.776 201.932 275.176 201.788 275.656C201.66 276.12 201.532 276.568 201.404 277C201.292 277.416 201.204 277.712 201.14 277.888L199.916 281.872H204.38L203.132 277.888Z" fill="#9E5B18"/>
</svg>
