<svg width="59" height="56" viewBox="0 0 59 56" fill="none" xmlns="http://www.w3.org/2000/svg">
<path fill-rule="evenodd" clip-rule="evenodd" d="M3.56567 16.296C4.24905 14.9159 4.85728 14.6428 6.83977 14.8698C6.83977 15.0782 6.83977 15.2963 6.83977 15.5145C6.83977 23.1304 6.84299 30.7464 6.83676 38.3621C6.83569 39.6143 7.10599 40.7644 7.90895 41.7539C8.84566 42.9081 10.0559 43.479 11.5278 43.5906C13.2767 43.7235 15.039 43.8147 16.7634 44.1122C19.7502 44.6272 22.5262 45.7213 24.9308 47.6423C25.2243 47.8766 25.5019 48.1311 25.8718 48.4491C24.7481 48.2534 23.748 48.0489 22.7392 47.9086C19.7588 47.4942 16.7597 47.3868 13.7725 47.7249C11.194 48.0165 8.63268 48.4651 6.06858 48.8748C4.83559 49.0717 4.17304 48.7202 3.56589 47.43C3.56567 37.0521 3.56567 26.6741 3.56567 16.296Z" fill="#9E5B18"/>
<path fill-rule="evenodd" clip-rule="evenodd" d="M56.5119 47.4302C55.8565 48.8229 55.2603 49.1262 53.7619 48.8019C49.1587 47.8064 44.5094 47.3159 39.8044 47.657C37.9739 47.7897 36.157 48.1149 34.3314 48.3525C34.5622 48.1484 34.8226 47.898 35.1032 47.6736C37.3616 45.867 39.9483 44.75 42.7584 44.2341C44.5968 43.8965 46.4752 43.7415 48.3426 43.6122C50.3335 43.474 51.8222 42.6309 52.7468 40.8359C53.1541 40.0454 53.2396 39.1873 53.2391 38.3111C53.2368 30.7297 53.2379 23.1482 53.2379 15.5668C53.2379 15.3443 53.2379 15.1219 53.2379 14.9059C55.0756 14.672 55.8715 14.822 56.5119 16.296C56.5119 26.6741 56.5119 37.0521 56.5119 47.4302Z" fill="#9E5B18"/>
<path fill-rule="evenodd" clip-rule="evenodd" d="M28.5418 46.8932C28.1364 46.5177 27.7951 46.1841 27.4363 45.8715C24.3499 43.1828 20.7189 41.7024 16.7273 41.0971C15.115 40.8524 13.4766 40.7689 11.8469 40.6595C10.5231 40.5709 9.77574 39.8434 9.77531 38.5139C9.77252 29.1287 9.77252 19.7433 9.7751 10.358C9.77531 8.94636 10.598 8.18388 11.9839 8.22322C14.6654 8.29932 17.3006 8.63332 19.8496 9.5186C23.2901 10.7137 26.1447 12.6972 28.1321 15.8169C28.379 16.2045 28.5572 16.7167 28.5583 17.1717C28.5815 27.0081 28.5753 36.8445 28.574 46.6809C28.574 46.7149 28.5641 46.749 28.5418 46.8932Z" fill="#9E5B18"/>
<path fill-rule="evenodd" clip-rule="evenodd" d="M31.5008 46.9097C31.5008 46.6074 31.5008 46.4077 31.5008 46.2075C31.5008 36.8396 31.5262 27.4714 31.4731 18.1035C31.4652 16.7266 31.9246 15.6727 32.7411 14.658C35.36 11.4042 38.8268 9.61113 42.8236 8.82703C44.6053 8.47768 46.4388 8.37045 48.2552 8.23317C49.5064 8.1387 50.3023 9.02095 50.3029 10.363C50.3055 17.3719 50.3042 24.3804 50.3042 31.3891C50.3042 33.7486 50.3063 36.1082 50.3033 38.4672C50.3014 39.8595 49.5652 40.6263 48.1738 40.6496C44.8091 40.7058 41.524 41.1944 38.3706 42.4275C35.951 43.3735 33.7772 44.7093 31.918 46.5458C31.813 46.6496 31.696 46.7402 31.5008 46.9097Z" fill="#9E5B18"/>
</svg>
