<svg width="44" height="49" viewBox="0 0 44 49" fill="none" xmlns="http://www.w3.org/2000/svg">
<g clip-path="url(#clip0_3_49)">
<path d="M19.2584 46.3961C19.9736 46.3961 20.5577 46.9783 20.5577 47.696C20.5577 48.4138 19.9776 48.996 19.2584 48.996H3.01969C2.18927 48.996 1.43435 48.6571 0.886039 48.1068C0.337728 47.5605 0 46.8068 0 45.9694V3.0306C0 2.1932 0.337728 1.43953 0.886039 0.889242C1.43435 0.338949 2.1853 0 3.01969 0H40.0903C40.9207 0 41.6756 0.342936 42.2239 0.889242C42.7723 1.43953 43.11 2.1932 43.11 3.0306V24.5439C43.11 25.2616 42.5299 25.8438 41.8147 25.8438C41.0995 25.8438 40.5194 25.2616 40.5194 24.5439V3.0306C40.5194 2.91496 40.4717 2.80729 40.3923 2.73153C40.3128 2.65177 40.2055 2.60392 40.0943 2.60392H3.01969C2.90446 2.60392 2.79718 2.65177 2.71772 2.72754C2.64223 2.81128 2.59455 2.91496 2.59455 3.0306V45.9694C2.59455 46.085 2.64223 46.1927 2.72169 46.2685C2.80116 46.3482 2.90843 46.3961 3.02366 46.3961H19.2584ZM13.4853 23.0964C13.2389 22.6697 13.4177 21.4495 13.9462 21.0188C15.456 20.1335 17.538 20.4087 18.9922 19.3879C19.0757 19.2603 19.1671 19.0768 19.2584 18.8735C19.3896 18.5704 19.5127 18.2394 19.5882 18.0121C19.2664 17.6293 18.9883 17.1987 18.726 16.776L17.8519 15.3803C17.534 14.9018 17.3672 14.4631 17.3552 14.1042C17.3513 13.9368 17.3791 13.7813 17.4427 13.6457C17.5062 13.5021 17.6056 13.3865 17.7446 13.2948C17.8082 13.2509 17.8797 13.215 17.9552 13.1871C17.8956 12.4294 17.8757 11.4764 17.9155 10.6749C17.9353 10.4875 17.9711 10.2961 18.0228 10.1047C18.2453 9.30314 18.8055 8.65715 19.5008 8.21452C19.8822 7.97127 20.3034 7.78385 20.7405 7.66024C21.0186 7.58049 20.5021 6.69124 20.7921 6.65934C22.1828 6.51579 24.4277 7.78784 25.3971 8.84058C25.8819 9.36694 26.1878 10.0688 26.2554 10.9939L26.1997 13.2708C26.4421 13.3466 26.5971 13.4981 26.6606 13.7494C26.7322 14.0285 26.6567 14.4153 26.4183 14.9496C26.4143 14.9576 26.4103 14.9696 26.4024 14.9775L25.4051 16.6244C25.0396 17.2306 24.6661 17.8367 24.1813 18.3152C24.225 18.379 24.2727 18.4428 24.3164 18.5066C24.5151 18.7977 24.7137 19.0888 24.968 19.348C24.976 19.356 24.9839 19.3679 24.9879 19.3759C26.1362 20.1894 28.9294 20.3888 30.0022 20.9869L30.0459 21.0108C30.5982 21.4375 30.769 22.6577 30.5147 23.0844H13.4853V23.0964ZM40.6426 31.5182C40.432 31.3149 40.1896 31.2192 39.9115 31.2231C39.6294 31.2271 39.391 31.3388 39.1963 31.5461L37.5871 33.2289L42.1048 37.6073L43.7298 35.9086C43.9245 35.7092 44.004 35.454 44 35.1749C43.996 34.8997 43.8967 34.6445 43.698 34.4571L40.6426 31.5182ZM33.59 46.3243C32.994 46.5157 32.3981 46.7111 31.806 46.9065C31.21 47.1059 30.6141 47.3053 30.022 47.5046C28.6195 47.9672 27.8328 48.2224 27.6659 48.2703C27.507 48.3181 27.5983 47.6602 27.9559 46.2804L29.0724 41.9618L36.1528 34.7123L40.6664 39.0708L33.59 46.3243ZM12.6112 38.026C11.896 38.026 11.3119 37.4359 11.3119 36.7061C11.3119 35.9764 11.892 35.3862 12.6112 35.3862H21.4358C22.151 35.3862 22.7351 35.9764 22.7351 36.7061C22.7351 37.4359 22.155 38.026 21.4358 38.026H12.6112ZM12.6112 29.7756C11.896 29.7756 11.3159 29.1934 11.3159 28.4717C11.3159 27.7539 11.896 27.1717 12.6112 27.1717H30.1134C30.8286 27.1717 31.4087 27.7539 31.4087 28.4717C31.4087 29.1895 30.8286 29.7756 30.1134 29.7756H12.6112Z" fill="#9E5B18"/>
</g>
<defs>
<clipPath id="clip0_3_49">
<rect width="44" height="49" fill="white"/>
</clipPath>
</defs>
</svg>
