<svg width="42" height="42" viewBox="0 0 42 42" fill="none" xmlns="http://www.w3.org/2000/svg">
<path fill-rule="evenodd" clip-rule="evenodd" d="M20.6878 0.977368C20.8447 0.977368 21.0017 0.977368 21.1585 0.977368C21.3095 1.05991 21.4727 0.996712 21.6289 1.01666C21.7854 0.996712 21.9488 1.06001 22.1 0.977368C22.2309 0.977368 22.3615 0.977368 22.4923 0.977368C23.0711 1.05839 23.6564 1.05191 24.237 1.10751C25.5076 1.22935 26.7186 1.59628 27.9068 2.03643C30.2305 2.89739 32.3507 4.12062 34.2093 5.76294C35.8011 7.16949 37.192 8.75813 38.276 10.5979C39.4858 12.6514 40.3841 14.8273 40.808 17.1823C40.9281 17.8493 40.9261 18.5309 40.9715 19.2067C40.9783 19.3079 40.9378 19.4161 41.0099 19.5093C41.0099 19.6401 41.0099 19.771 41.0099 19.9018C40.9274 20.053 40.9906 20.2162 40.9706 20.3726C40.9906 20.5291 40.9273 20.6927 41.0099 20.8441C41.0099 21.0012 41.0099 21.1583 41.0099 21.3153C40.9274 21.4664 40.9906 21.6296 40.9706 21.786C40.9906 21.9426 40.9273 22.1061 41.0099 22.2574C41.0099 22.4145 41.0099 22.5716 41.0099 22.7286C40.9223 23.2813 40.9323 23.8415 40.8792 24.397C40.7577 25.6694 40.3889 26.881 39.9499 28.0713C39.0912 30.3996 37.8501 32.5072 36.2247 34.3822C36.0014 34.6398 35.8104 34.9649 35.4217 35.0292C35.178 34.9516 35.1534 34.7342 35.1087 34.5318C34.9762 33.9337 34.8373 33.3347 34.7348 32.7324C34.5421 31.6003 33.8228 30.9197 32.8792 30.4129C31.1809 29.5008 29.3367 29.0493 27.4561 28.7129C26.7905 28.5938 26.1122 28.5508 25.4557 28.3778C25.1816 28.2981 25.0117 28.0699 24.8193 27.8904C24.4406 27.5375 24.0286 27.2479 23.5593 27.0336C23.2749 26.2648 23.5114 25.5207 23.6649 24.7728C23.696 24.6068 23.8075 24.4965 23.9345 24.4019C25.2758 23.4037 26.2707 22.1365 26.9016 20.5851C27.0021 20.338 27.1622 20.1755 27.4566 20.1676C27.7765 20.1591 27.9862 19.9686 28.1185 19.6889C28.4647 18.9572 28.5795 18.1685 28.6688 17.3763C28.7339 16.8001 28.7316 16.228 28.4301 15.6998C28.3993 15.6458 28.4182 15.5711 28.4169 15.5053C28.5281 14.5952 28.4124 13.6905 28.3592 12.7845C28.3839 12.6741 28.4283 12.5746 28.5188 12.5019C28.7798 12.4051 28.8878 12.6243 29.0595 12.7717C29.0887 12.2387 28.8032 11.8674 28.4745 11.5332C28.0679 11.1199 28.064 11.0575 28.592 10.8558C28.7739 10.7863 28.7051 10.6786 28.6736 10.5744C28.5155 10.052 28.2566 9.59013 27.8487 9.21824C27.7525 9.13033 27.6553 9.04201 27.5683 8.94489C27.5058 8.87521 27.4627 8.78902 27.4987 8.69301C27.5414 8.57938 27.6451 8.55456 27.7527 8.54332C27.8854 8.52925 28.0051 8.61179 28.1731 8.59183C27.9641 8.11107 27.5582 7.86162 27.1487 7.61623C27.1041 7.58949 27.0492 7.58179 27.0045 7.55536C26.8537 7.46613 26.6144 7.42744 26.6495 7.19734C26.681 6.99175 26.9202 7.04937 27.1041 6.97524C26.7532 6.70209 26.4273 6.44738 26.0228 6.31572C25.7151 6.21566 25.4682 6.06779 25.5123 5.68314C25.5303 5.52727 25.4174 5.48889 25.302 5.44757C24.9444 5.31955 24.5757 5.23468 24.2045 5.15983C23.9668 5.11193 23.6594 5.14525 23.5681 4.86876C23.4709 4.57486 23.7384 4.40359 23.9175 4.21856C23.9628 4.17187 24.0145 4.13187 24.1154 4.07545C23.4229 4.05986 22.7729 3.98684 22.1484 4.2532C21.8762 4.36926 21.6301 4.31022 21.4378 4.09044C21.3031 3.9366 21.1442 3.88363 20.9505 3.90257C20.2853 3.96759 19.6343 4.07191 19.0448 4.4275C18.7846 4.58448 18.6015 4.78592 18.4895 5.06099C18.3755 5.34132 18.1834 5.45283 17.8716 5.40888C17.5594 5.36482 17.2551 5.30011 16.9587 5.19802C16.8202 5.15032 16.6853 5.08418 16.5558 5.20359C16.4244 5.32461 16.4243 5.47511 16.4667 5.63817C16.6062 6.17514 16.6068 6.1875 16.0666 6.30782C15.4607 6.44272 14.8836 6.62553 14.4086 7.08411C14.5014 7.22853 14.7686 7.20119 14.7429 7.41965C14.7207 7.60833 14.5561 7.69198 14.417 7.7888C14.0901 8.01627 13.8299 8.30309 13.644 8.65665C13.5572 8.82204 13.5382 8.92747 13.7773 8.99219C14.1027 9.0802 14.1473 9.26199 13.9129 9.48986C13.7897 9.60968 13.6931 9.74721 13.5797 9.87229C13.4107 10.059 13.205 10.2151 13.6226 10.3965C13.8779 10.5073 13.7224 10.7376 13.5837 10.8814C13.3101 11.1651 13.0811 11.4811 12.8556 11.8019C12.542 12.2477 12.365 12.7506 12.2369 13.2451C12.3347 13.128 12.4621 12.9981 12.598 12.8768C12.7219 12.7663 12.8635 12.7009 13.0287 12.7655C13.2002 12.8326 13.2374 12.9855 13.2437 13.1502C13.2597 13.5685 13.2508 13.9871 13.251 14.4054C13.2512 14.8611 13.3089 15.3126 13.3421 15.7663C12.9521 17.0564 13.2534 18.293 13.6487 19.5165C13.7714 19.8963 14.0151 20.1706 14.4705 20.1785C14.7444 20.1832 14.8654 20.3977 14.9607 20.6229C15.2359 21.2735 15.575 21.8858 15.9874 22.4624C16.5085 23.1914 17.1433 23.802 17.8422 24.352C17.9878 24.4664 18.1327 24.5746 18.1797 24.767C18.3358 25.5128 18.5654 26.2546 18.2951 27.022C17.6282 27.3017 17.1305 27.8134 16.5926 28.2708C16.5321 28.3223 16.4602 28.3511 16.3817 28.3634C15.4297 28.5872 14.4502 28.6536 13.4962 28.8699C12.1065 29.1847 10.7448 29.5702 9.43684 30.1581C8.05395 30.7799 7.15915 31.7322 6.98215 33.2845C6.93348 33.7118 6.82115 34.1309 6.73361 34.5529C6.69394 34.7438 6.66186 34.9449 6.44053 35.0262C6.02936 34.9778 5.83769 34.6314 5.60787 34.3669C4.15849 32.6993 3.01312 30.8364 2.17762 28.7924C1.4844 27.0963 0.941471 25.3576 0.90767 23.4974C0.903015 23.2431 0.911111 22.9798 0.836426 22.7284C0.836426 22.5713 0.836426 22.4142 0.836426 22.2572C0.918903 22.1061 0.855755 21.9429 0.875691 21.7865C0.855755 21.6299 0.919004 21.4664 0.836426 21.3151C0.836426 21.158 0.836426 21.0009 0.836426 20.8439C0.918903 20.6928 0.855755 20.5295 0.875691 20.3732C0.855755 20.2166 0.919004 20.0529 0.836426 19.9016C0.836426 19.7446 0.836426 19.5876 0.836426 19.4305C0.923457 18.878 0.914046 18.3181 0.96677 17.7629C1.0876 16.491 1.45404 15.2788 1.89548 14.0904C2.66965 12.0059 3.72951 10.0766 5.14438 8.35565C6.90413 6.21515 8.97234 4.44654 11.4403 3.15899C13.2119 2.23483 15.0594 1.53359 17.0288 1.17942C17.6954 1.0595 18.3764 1.06112 19.0516 1.01555C19.1528 1.00876 19.2609 1.04927 19.354 0.977266C19.4847 0.977266 19.6155 0.977266 19.7462 0.977266C19.8973 1.05981 20.0603 0.99661 20.2166 1.01656C20.373 0.996712 20.5365 1.06001 20.6878 0.977368Z" fill="white"/>
<path fill-rule="evenodd" clip-rule="evenodd" d="M19.275 41.1816C19.1719 41.0008 18.9428 41.1837 18.831 41.0275C18.7451 40.9003 18.7625 40.7618 18.764 40.6161C18.777 39.3904 18.8704 38.1683 18.9524 36.9472C19.037 35.6876 19.0958 34.4246 19.2488 33.1702C19.3462 32.3712 19.5994 31.6185 20.0065 30.9243C20.1496 30.6805 20.146 30.4803 20.0068 30.2343C19.8371 29.9343 19.567 29.6722 19.5811 29.2871C19.7796 28.9008 20.1943 28.8436 20.5327 28.6739C20.6203 28.6298 20.7288 28.6135 20.8259 28.5789C20.8883 28.5559 20.9509 28.5555 21.0137 28.5768C21.3377 28.6696 21.6469 28.798 21.94 28.9655C22.0756 29.043 22.2157 29.1137 22.2631 29.2813C22.2851 29.6096 22.0836 29.8488 21.9146 30.0895C21.7029 30.3905 21.6751 30.6536 21.8695 30.9875C22.4046 31.9071 22.6165 32.9151 22.6838 33.9763C22.7679 35.3016 22.8701 36.6265 22.961 37.9517C23.0251 38.887 23.0512 39.8255 23.115 40.7614C23.1248 40.9044 23.0623 41.0133 22.9398 41.0876C22.7937 41.1338 22.6162 41.0308 22.4918 41.1815C22.2303 41.1815 21.9687 41.1815 21.7071 41.1815C21.5503 41.1194 21.3933 41.1194 21.2364 41.1815C21.0272 41.1815 20.818 41.1815 20.6087 41.1815C20.3994 41.1176 20.1902 41.1176 19.981 41.1815C19.7458 41.1816 19.5105 41.1816 19.275 41.1816Z" fill="#4A4A54"/>
<path fill-rule="evenodd" clip-rule="evenodd" d="M19.9818 41.1832C20.1913 41.0567 20.4006 41.0772 20.61 41.1832C20.4006 41.1832 20.1913 41.1832 19.9818 41.1832Z" fill="#69646A"/>
<path fill-rule="evenodd" clip-rule="evenodd" d="M20.2114 1.04923C20.0546 1.03525 19.8839 1.11177 19.7456 0.97727C19.9027 0.97727 20.0598 0.97727 20.2168 0.97727C20.2705 1.00545 20.2688 1.02947 20.2114 1.04923Z" fill="#F6A36C"/>
<path fill-rule="evenodd" clip-rule="evenodd" d="M0.908212 21.7918C0.894235 21.9487 0.970701 22.1196 0.836304 22.2579C0.836304 22.1007 0.836304 21.9435 0.836304 21.7864C0.864459 21.7326 0.888463 21.7344 0.908212 21.7918Z" fill="#F6A36C"/>
<path fill-rule="evenodd" clip-rule="evenodd" d="M41.0105 22.2579C40.8761 22.1197 40.9527 21.9487 40.9386 21.7918C40.9584 21.7345 40.9824 21.7326 41.0105 21.7863C41.0105 21.9435 41.0105 22.1007 41.0105 22.2579Z" fill="#F6A36C"/>
<path fill-rule="evenodd" clip-rule="evenodd" d="M20.2113 1.04923C20.214 1.02531 20.2158 1.00129 20.2167 0.97727C20.3738 0.97727 20.5307 0.97727 20.6878 0.97727C20.5421 1.08785 20.3742 1.05157 20.2113 1.04923Z" fill="#F5904D"/>
<path fill-rule="evenodd" clip-rule="evenodd" d="M21.6352 1.04903C21.4727 1.05025 21.3045 1.08816 21.1588 0.97727C21.3159 0.97727 21.473 0.97727 21.6299 0.97727C21.6849 0.997238 21.6866 1.02116 21.6352 1.04903Z" fill="#F5904D"/>
<path fill-rule="evenodd" clip-rule="evenodd" d="M21.6349 1.04903C21.6324 1.02521 21.6305 1.00119 21.6295 0.97727C21.7866 0.97727 21.9437 0.97727 22.1007 0.97727C21.9623 1.11086 21.792 1.03656 21.6349 1.04903Z" fill="#F6A36C"/>
<path fill-rule="evenodd" clip-rule="evenodd" d="M0.836304 19.902C0.970701 20.0403 0.894235 20.2112 0.908212 20.3681C0.888463 20.4255 0.864459 20.4273 0.836304 20.3735C0.836304 20.2164 0.836304 20.0592 0.836304 19.902Z" fill="#F6A36C"/>
<path fill-rule="evenodd" clip-rule="evenodd" d="M40.9386 20.3681C40.9527 20.2112 40.8762 20.0403 41.0105 19.902C41.0105 20.0592 41.0105 20.2164 41.0105 20.3735C40.9823 20.4273 40.9584 20.4256 40.9386 20.3681Z" fill="#F6A36C"/>
<path fill-rule="evenodd" clip-rule="evenodd" d="M0.836304 20.3712C0.860307 20.3696 0.88431 20.3678 0.908212 20.3658C0.910744 20.5287 0.946394 20.6967 0.836304 20.8427C0.836304 20.6855 0.836304 20.5283 0.836304 20.3712Z" fill="#F5904D"/>
<path fill-rule="evenodd" clip-rule="evenodd" d="M40.9378 20.3658C40.9617 20.3678 40.9857 20.3696 41.0097 20.3712C41.0097 20.5284 41.0097 20.6855 41.0097 20.8427C40.8996 20.6968 40.9353 20.5288 40.9378 20.3658Z" fill="#F5904D"/>
<path fill-rule="evenodd" clip-rule="evenodd" d="M0.908212 21.7929C0.88431 21.7909 0.860307 21.7891 0.836304 21.7874C0.836304 21.6303 0.836304 21.4731 0.836304 21.316C0.946496 21.462 0.910845 21.63 0.908212 21.7929Z" fill="#F5904D"/>
<path fill-rule="evenodd" clip-rule="evenodd" d="M41.0097 21.7874C40.9857 21.7891 40.9617 21.7908 40.9377 21.7929C40.9353 21.63 40.8996 21.462 41.0097 21.316C41.0097 21.4732 41.0097 21.6303 41.0097 21.7874Z" fill="#F5904D"/>
<path fill-rule="evenodd" clip-rule="evenodd" d="M21.2374 41.1827C21.3945 41.0831 21.5516 41.0683 21.7085 41.1827C21.5516 41.1827 21.3945 41.1827 21.2374 41.1827Z" fill="#68646A"/>
<path fill-rule="evenodd" clip-rule="evenodd" d="M18.036 24.7684C17.6518 24.3964 17.2084 24.0961 16.8235 23.7202C15.9289 22.8468 15.2706 21.8246 14.7887 20.6808C14.6974 20.4639 14.6245 20.3164 14.3216 20.3373C13.9228 20.3648 13.6858 20.0717 13.5406 19.7276C13.1863 18.8874 13.0368 18.0023 12.9883 17.0967C12.9631 16.6244 12.9443 16.1537 13.2162 15.7313C13.2372 15.4137 13.4503 15.3073 13.7228 15.3047C14.0024 15.302 14.0806 15.5065 14.1313 15.7444C14.2185 16.1531 14.2235 16.5762 14.3534 16.9762C14.4132 17.1608 14.4604 17.3521 14.5919 17.5311C14.7162 17.2861 14.7053 17.041 14.7035 16.7995C14.6993 16.26 14.7797 15.7299 14.9115 15.2113C15.0919 14.501 15.3583 14.4063 15.9625 14.8234C15.9607 14.5891 15.9446 14.3722 15.9253 14.152C15.8423 13.206 15.8943 12.2743 16.3009 11.3934C16.4138 11.1489 16.5923 10.9567 16.8144 10.8134C17.2145 10.5552 17.5086 10.6674 17.6413 11.129C17.8564 11.877 18.1786 12.5694 18.6394 13.2C18.9027 13.5599 19.2597 13.7932 19.63 14.0153C19.7038 14.0595 19.7969 14.1321 19.878 14.046C19.9363 13.9844 19.89 13.8957 19.8687 13.8214C19.674 13.1434 19.4785 12.4661 19.3852 11.7634C19.3601 11.5743 19.3245 11.3897 19.4832 11.254C19.6579 11.1049 19.8343 11.2148 19.9908 11.3048C21.1472 11.9705 22.0738 12.8645 22.7055 14.054C22.7054 13.7321 22.7307 13.4064 22.699 13.085C22.6658 12.7481 22.6397 12.4088 22.5697 12.0759C22.5564 12.0122 22.5585 11.9457 22.5592 11.8802C22.5606 11.7499 22.5428 11.6053 22.6916 11.5397C22.8454 11.4719 22.9699 11.5502 23.0801 11.6521C23.4461 11.9903 23.6716 12.4168 23.8067 12.8868C23.8782 13.1357 23.9303 13.3945 23.9256 13.6595C23.924 13.746 23.9011 13.8681 24.0052 13.9005C24.1262 13.9382 24.1887 13.8201 24.2463 13.7379C24.3977 13.5219 24.4912 13.2771 24.5757 13.0288C24.6177 12.9056 24.6485 12.7559 24.8057 12.7444C24.9734 12.7321 25.0583 12.8666 25.1196 12.9996C25.3807 13.5658 25.5006 14.1624 25.4805 14.8028C26.304 14.7438 26.5752 15.3763 26.8894 15.9384C27.1063 16.3265 27.1731 16.7681 27.2394 17.2383C27.6058 16.7721 27.6399 16.243 27.7281 15.7326C27.7664 15.5112 27.8238 15.3188 28.0986 15.3112C28.2526 15.3001 28.3663 15.3677 28.4512 15.4913C28.472 15.525 28.4939 15.5578 28.5171 15.5901C28.8227 15.9044 28.9049 16.3149 28.8922 16.715C28.8608 17.7093 28.7288 18.6941 28.3567 19.6276C28.1816 20.067 27.9141 20.4059 27.3657 20.3382C27.1596 20.3126 27.143 20.4881 27.0928 20.6118C26.5466 21.9542 25.7354 23.1093 24.6528 24.0712C24.3805 24.3132 24.0916 24.5366 23.8103 24.7687C22.3449 26.2977 19.501 26.2976 18.036 24.7684Z" fill="#F3B281"/>
<path fill-rule="evenodd" clip-rule="evenodd" d="M28.5173 15.5898C28.4988 15.5863 28.4813 15.5798 28.4647 15.5708C28.2394 15.3349 28.2952 15.0212 28.2362 14.7464C28.2712 14.9141 28.259 15.0788 28.2763 15.2419C28.2603 15.3258 28.2078 15.3809 28.1376 15.4221C27.8927 15.4052 27.9189 15.5899 27.9032 15.7405C27.8375 16.3704 27.7133 16.981 27.3282 17.5062C27.2681 17.5881 27.2345 17.6943 27.0996 17.7472C27.0109 17.391 27.0587 17.0241 26.9629 16.6743C26.7893 16.0396 26.5035 15.4821 25.9958 15.051C25.8437 14.9219 25.7052 14.827 25.5653 15.0712C25.5071 15.1726 25.4028 15.2759 25.2779 15.21C25.1673 15.1516 25.2297 15.0172 25.2459 14.9215C25.3716 14.178 25.1742 13.5017 24.8068 12.7704C24.6897 13.3468 24.5353 13.8336 24.0958 14.1577C24.0155 14.2169 23.9424 14.3412 23.8351 14.2927C23.7244 14.2428 23.771 14.1051 23.7709 14.0067C23.7702 13.297 23.6209 12.6316 23.201 12.0452C23.0738 11.8676 22.9287 11.7068 22.6812 11.555C22.8488 12.5903 22.9656 13.5608 22.7803 14.6299C22.1027 13.0814 21.0064 12.0324 19.5334 11.2563C19.5843 12.3776 19.9486 13.3577 20.2282 14.4135C19.3241 14.2107 18.726 13.6876 18.2646 12.9788C17.8839 12.3938 17.5937 11.7643 17.4445 11.0819C17.3718 10.75 17.2174 10.7525 16.9886 10.9009C16.3611 11.3079 16.2337 11.9628 16.1418 12.6332C16.02 13.5219 16.1005 14.4067 16.2212 15.3347C15.9558 15.2126 15.8211 15.0049 15.6608 14.8303C15.4078 14.5545 15.3397 14.5619 15.1944 14.9221C14.9709 15.4759 14.9307 16.0651 14.8854 16.6512C14.8493 17.1174 14.83 17.5849 14.7992 18.1214C14.3741 17.6959 14.1942 17.223 14.1009 16.7095C14.0425 16.3883 13.9745 16.0654 13.9582 15.7409C13.9407 15.3924 13.7859 15.3767 13.537 15.511C13.4235 15.5722 13.3229 15.657 13.2165 15.7311C13.0299 14.9067 13.0683 14.0698 13.071 13.2343C13.0715 13.1055 13.1734 12.9113 12.9986 12.8545C12.8602 12.8096 12.7458 12.964 12.6503 13.0697C12.443 13.2988 12.2421 13.5338 11.985 13.8277C12.0862 12.4353 12.7617 11.4301 13.7106 10.5021C13.5489 10.5021 13.4429 10.5017 13.3368 10.5022C13.2278 10.5027 13.0892 10.6236 13.0192 10.4947C12.9644 10.3936 13.0738 10.2763 13.1307 10.1754C13.3436 9.79722 13.6456 9.49268 13.9978 9.17558C13.7352 9.06904 13.5122 9.18044 13.2921 9.18064C13.3393 8.62149 13.3393 8.62149 14.6668 7.33739C14.4266 7.33739 14.2172 7.33739 13.95 7.33739C14.5988 6.45769 15.496 6.1973 16.4864 6.04265C16.2607 5.72707 16.128 5.42952 16.3701 5.08933C16.4946 4.91432 16.6163 4.8419 16.8273 4.93923C17.1976 5.10989 17.5929 5.19405 17.9956 5.25309C18.145 5.27497 18.2361 5.27244 18.2826 5.09611C18.4409 4.49695 18.9199 4.22806 19.4439 4.02601C19.9095 3.84665 20.398 3.75276 20.8965 3.72825C21.1546 3.71559 21.4445 3.60419 21.5693 4.00272C21.6106 4.13509 21.8132 4.21105 22.0109 4.12101C22.8226 3.75185 23.6624 3.8347 24.6086 3.99543C24.1352 4.19231 23.838 4.46302 23.6341 4.88606C24.4376 4.99716 25.1986 5.15536 25.917 5.48735C25.4906 5.87241 25.5056 5.93753 26.0249 6.12216C26.6153 6.332 27.1234 6.65569 27.4928 7.23388C27.2246 7.24715 26.9926 7.09665 26.7188 7.21748C27.166 7.41942 27.5902 7.60952 27.9252 7.94597C28.1587 8.18042 28.3492 8.44202 28.4951 8.73735C28.5292 8.80642 28.574 8.88815 28.5026 8.95277C28.4272 9.02103 28.3593 8.9476 28.2938 8.91266C28.0672 8.79153 27.8436 8.66079 27.4872 8.686C28.3846 9.27311 28.7633 10.1075 29.0287 11.0659C28.7467 11.0403 28.5073 10.9682 28.2143 11.0724C28.9443 11.6434 29.4414 12.2863 29.1782 13.32C28.964 13.0161 28.8386 12.7301 28.6077 12.5254C28.4178 12.5491 28.5103 12.6695 28.5263 12.7636C28.658 13.7063 28.6526 14.6483 28.5173 15.5898Z" fill="#3A3431"/>
<path fill-rule="evenodd" clip-rule="evenodd" d="M19.6835 29.2553C19.8138 29.6574 20.0908 29.977 20.2923 30.3392C20.3615 30.4637 20.4578 30.5739 20.3493 30.7298C19.4376 32.0406 19.3566 33.5573 19.2711 35.0757C19.1668 36.9274 19.0491 38.7783 18.9306 40.6291C18.9221 40.7629 18.9665 40.921 18.8308 41.0272C18.6877 41.0234 18.5444 41.0196 18.4013 41.0158C18.2543 40.9348 18.08 41.0396 17.9348 40.9467C16.9243 40.8812 15.9568 40.606 14.9968 40.3133C12.3755 39.5138 10.0261 38.2044 7.93059 36.4446C7.39302 35.9932 6.843 35.5454 6.41321 34.9782C6.67319 34.2262 6.78248 33.4364 6.93519 32.6626C7.15227 31.5622 7.80581 30.8583 8.72662 30.3293C10.3096 29.4202 12.0467 28.9657 13.8174 28.6256C14.661 28.4635 15.5161 28.3616 16.366 28.2324C16.8383 28.641 17.306 29.0548 17.7617 29.4824C18.1202 29.8189 18.1879 29.8231 18.6224 29.6078C18.8443 29.4979 19.063 29.381 19.2883 29.278C19.4137 29.2208 19.5443 29.1274 19.6835 29.2553Z" fill="#D3D5D7"/>
<path fill-rule="evenodd" clip-rule="evenodd" d="M22.9404 41.0863C22.8041 38.4541 22.6743 35.8213 22.4154 33.1974C22.336 32.3942 22.0726 31.6399 21.6319 30.9665C21.4346 30.665 21.4469 30.4495 21.6436 30.1655C21.8412 29.8804 22.0629 29.6005 22.1597 29.2548C22.2983 29.1245 22.4295 29.2184 22.5547 29.2757C22.7918 29.3841 23.0359 29.486 23.2529 29.6278C23.5877 29.8464 23.8396 29.7204 24.0843 29.4844C24.5343 29.0503 25.0058 28.6401 25.4795 28.2324C27.0085 28.4328 28.5319 28.6665 30.0176 29.0933C31.2895 29.4586 32.535 29.8891 33.6275 30.6689C34.2446 31.1096 34.6828 31.6602 34.8388 32.4302C35.0117 33.2843 35.2325 34.1287 35.4324 34.9773C34.8578 35.678 34.1616 36.2519 33.46 36.8122C31.7951 38.1417 29.9662 39.1912 27.9651 39.9325C27.0477 40.2722 26.1095 40.5285 25.1516 40.7357C24.7085 40.8315 24.2414 40.8181 23.8187 41.0084C23.6935 40.9728 23.5685 40.963 23.4446 41.014C23.2766 41.038 23.1085 41.0622 22.9404 41.0863Z" fill="#D3D5D7"/>
<path fill-rule="evenodd" clip-rule="evenodd" d="M18.0365 24.7688C18.6016 25.0327 19.1331 25.3639 19.7337 25.5578C21.0721 25.99 22.2711 25.6195 23.4286 24.9601C23.5523 24.8897 23.6832 24.8323 23.8105 24.7689C23.6846 25.5256 23.5321 26.2807 23.6771 27.0534C23.8678 27.2217 23.8169 27.4116 23.6407 27.5084C22.8658 27.9345 22.0652 28.3104 21.2491 28.6513C21.1695 28.6847 21.068 28.6574 20.9778 28.6735C20.9407 28.6729 20.9039 28.6724 20.8667 28.6718C20.6131 28.677 20.383 28.6053 20.1611 28.4819C19.5802 28.159 18.9556 27.9254 18.3694 27.6137C18.148 27.4961 17.8967 27.3599 18.17 27.0529C18.3145 26.2803 18.1624 25.5253 18.0365 24.7688Z" fill="#E1A279"/>
<path fill-rule="evenodd" clip-rule="evenodd" d="M18.1695 27.0529C18.0921 27.271 18.2301 27.3507 18.396 27.4299C19.1005 27.7656 19.8022 28.1078 20.5043 28.4487C20.6322 28.5108 20.7713 28.5558 20.8662 28.6721C20.4722 28.8669 20.0781 29.062 19.6839 29.2568C19.2579 29.4762 18.8288 29.6901 18.4071 29.9176C18.2352 30.0103 18.1051 30.0036 17.9549 29.8679C17.4455 29.4087 16.9272 28.9593 16.4089 28.5098C16.3098 28.4237 16.314 28.336 16.3666 28.2339C16.6803 27.9609 17.0057 27.6999 17.3042 27.4108C17.5515 27.1713 17.8189 27.0227 18.1695 27.0529Z" fill="#F2F9FE"/>
<path fill-rule="evenodd" clip-rule="evenodd" d="M20.9773 28.6733C21.7488 28.1841 22.6039 27.8606 23.4127 27.4452C23.5781 27.3602 23.7635 27.3023 23.6766 27.0532C24.0274 27.0219 24.2946 27.1713 24.5419 27.4108C24.8403 27.6998 25.1655 27.9613 25.4792 28.2347C25.5315 28.337 25.5358 28.4242 25.4362 28.5104C24.9178 28.9598 24.3992 29.4092 23.89 29.8687C23.7391 30.0049 23.6089 30.009 23.4375 29.9169C23.0153 29.6899 22.5861 29.4762 22.1595 29.2572C21.7655 29.0625 21.3714 28.8679 20.9773 28.6733Z" fill="#F2F9FE"/>
<path fill-rule="evenodd" clip-rule="evenodd" d="M28.5265 12.7639C28.4781 12.6569 28.3905 12.5516 28.509 12.4388C28.5119 12.436 28.5736 12.4952 28.608 12.5255C28.5318 12.5883 28.5493 12.6829 28.5265 12.7639Z" fill="#B3632E"/>
<path fill-rule="evenodd" clip-rule="evenodd" d="M23.4448 41.0163C23.5684 40.9254 23.6933 40.9284 23.8193 41.0108C23.6945 41.0126 23.5696 41.0145 23.4448 41.0163Z" fill="#DFC7B8"/>
<path fill-rule="evenodd" clip-rule="evenodd" d="M17.9354 40.9474C18.0929 40.9579 18.2592 40.9095 18.4022 41.0166C18.2423 41.0218 18.0781 41.0574 17.9354 40.9474Z" fill="#E2C9B9"/>
<path fill-rule="evenodd" clip-rule="evenodd" d="M22.8855 22.1784C21.9656 23.3509 19.8832 23.3509 18.9612 22.1783C19.3939 21.9066 19.8723 21.9843 20.3348 22.0264C20.7277 22.0622 21.1124 22.0729 21.505 22.0248C21.973 21.9675 22.4452 21.9519 22.8855 22.1784Z" fill="#D79364"/>
<path fill-rule="evenodd" clip-rule="evenodd" d="M22.8855 22.1788C21.5773 22.2318 20.2693 22.2312 18.9612 22.1787C19.2026 21.8016 19.8662 21.5394 20.3554 21.6712C20.7323 21.7725 21.0856 21.7784 21.466 21.6791C22.0347 21.5307 22.4888 21.7935 22.8855 22.1788Z" fill="#E4A073"/>
<path fill-rule="evenodd" clip-rule="evenodd" d="M28.2932 14.569C28.371 14.8993 28.4718 15.2258 28.4644 15.5706C28.3553 15.521 28.2463 15.4715 28.1373 15.4219C28.1425 15.3465 28.1478 15.2709 28.1529 15.1955C28.2105 15.0367 28.1671 14.8719 28.1817 14.7105C28.1881 14.6396 28.173 14.5505 28.2932 14.569Z" fill="#E6772D"/>
<path fill-rule="evenodd" clip-rule="evenodd" d="M28.2933 14.5689C28.1492 14.7561 28.281 15.0051 28.153 15.1959C28.153 14.9002 28.153 14.6046 28.153 14.2707C28.2664 14.3604 28.2788 14.4651 28.2933 14.5689Z" fill="#92562F"/>
</svg>
